<?xml version="1.0" encoding="UTF-8" standalone="no"?>
<svg xmlns="http://www.w3.org/2000/svg"
   xmlns:dc="http://purl.org/dc/elements/1.1/"
   xmlns:cc="http://creativecommons.org/ns#"
   xmlns:rdf="http://www.w3.org/1999/02/22-rdf-syntax-ns#"
   width="983" height="461" viewBox="-1.5 -1.5 938.96533 440.34882">
  <metadata>
    <rdf:RDF>
      <cc:Work rdf:about="">
        <dc:format>image/svg+xml</dc:format>
        <dc:type rdf:resource="http://purl.org/dc/dcmitype/StillImage" />
        <dc:title>Blivet 2</dc:title>
      </cc:Work>
    </rdf:RDF>
  </metadata>
  <path d="m 234.46532,435.50499 c -11.27315,-5.13418 -18.5,-20.06076 -18.5,-38.21051 0,-16.24019 5.12187,-28.33455 15.20191,-35.8965 5.29583,-3.97288 3.54058,-3.34194 66.79809,-24.01144 25.575,-8.35667 52.35,-17.13473 59.5,-19.50678 7.15,-2.37206 35.275,-11.59028 62.5,-20.48494 27.225,-8.89467 63.675,-20.83527 81,-26.53467 30.8271,-10.14119 58.15725,-19.09741 114.5,-37.5222 15.4,-5.03599 42.175,-13.81134 59.5,-19.50076 17.325,-5.68943 44.1,-14.46072 59.5,-19.49176 15.4,-5.03103 42.175,-13.81069 59.5,-19.51035 46.47164,-15.28846 84.00134,-27.58996 105.92374,-34.71972 l 19.42373,-6.31714 -18.92373,-11.55085 C 889.981,115.8944 870.89032,104.26423 857.96532,96.402544 c -12.925,-7.86168 -30.25,-18.44262 -38.5,-23.513186 -8.25,-5.070565 -25.575,-15.652409 -38.5,-23.51521 -12.925,-7.862801 -33.31904,-20.313093 -45.32009,-27.667315 l -21.8201,-13.371314 -19.1799,5.950329 c -18.33111,5.686997 -121.32598,37.541945 -241.17991,74.593746 -30.8,9.52155 -81.65,25.272696 -113,35.002536 -31.35,9.72985 -59.7,18.50124 -63,19.492 -3.3,0.99075 -31.65,9.74818 -63,19.46094 -31.35,9.71277 -83.325,25.78248 -115.499995,35.71046 -32.175,9.92797 -58.675611,18.21318 -58.890243,18.41156 -0.214631,0.19839 1.298572,2.23001 3.362672,4.51473 11.151472,12.34334 14.074048,38.06973 6.133124,53.98769 -0.887826,1.77969 -1.424718,3.42531 -1.193093,3.65694 0.231626,0.23162 14.74608,-4.31215 32.25434,-10.09727 17.50826,-5.78512 45.783195,-15.07866 62.833195,-20.6523 17.05,-5.57365 32.125,-10.52622 33.5,-11.00571 2.17682,-0.75911 61.51219,-20.19347 141,-46.18231 13.475,-4.4057 38.675,-12.66003 56,-18.34294 17.325,-5.68292 45.225,-14.83457 62,-20.337 16.775,-5.50243 41.75,-13.67287 55.5,-18.15654 13.75,-4.48367 29.5,-9.65555 35,-11.49307 5.5,-1.83751 33.4,-10.99555 62,-20.35118 28.6,-9.355636 60.325,-19.735946 70.5,-23.067346 10.175,-3.331412 19.625,-6.045691 21,-6.031735 1.63871,0.01663 19.03682,11.591005 50.5,33.595931 26.4,18.4638 52.40033,36.52887 57.77851,40.1446 5.37818,3.61573 9.42818,6.89632 9,7.2902 -0.42818,0.39388 -8.65351,3.26479 -18.27851,6.3798 -9.625,3.11501 -28.975,9.42542 -43,14.02313 -66.96036,21.95113 -90.21017,29.565 -137.5,45.02866 -28.05,9.17228 -64.725,21.17992 -81.5,26.68363 -16.775,5.50372 -44.675,14.65801 -62,20.34286 -36.29955,11.91099 -75.72837,24.81968 -111.5,36.50424 -13.75,4.49135 -29.5,9.66753 -35,11.50263 -5.5,1.8351 -33.625,11.06064 -62.5,20.50121 -28.875,9.44057 -62.625,20.48255 -75,24.53773 -27.39783,8.97803 -31.48183,9.92287 -36.75426,8.50315 -8.88618,-2.3928 -16.5662,-11.14923 -20.4516,-23.31803 -2.6938,-8.43681 -2.84209,-22.91721 -0.32344,-31.58446 3.42746,-11.79469 11.52297,-21.49169 20.11107,-24.08955 1.60503,-0.48551 19.79323,-6.12874 40.41823,-12.54052 20.625,-6.41177 43.35,-13.45531 50.5,-15.65231 23.51806,-7.22645 37.42627,-11.52508 87,-26.88925 71.0496,-22.02009 174.02744,-53.87801 181,-55.99538 3.3,-1.00211 28.725,-8.87421 56.5,-17.49355 27.775,-8.61933 67.375,-20.86446 88,-27.21139 20.625,-6.34692 37.95,-11.89574 38.5,-12.3307 0.60828,-0.48105 0.97026,-8.16896 0.92409,-19.62593 -0.0631,-15.648496 -0.31684,-18.816426 -1.5,-18.724766 -1.36177,0.1055 -41.9263,13.25447 -117.42409,38.062956 -19.25,6.32552 -46.025,15.10685 -59.5,19.51406 -13.475,4.40721 -28.325,9.27861 -33,10.82534 -4.675,1.54672 -31.45,10.3149 -59.5,19.48484 -28.05,9.16994 -54.825,17.94402 -59.5,19.49796 -4.675,1.55395 -31.45,10.33006 -59.5,19.50249 -62.34451,20.38681 -110.14535,36.05317 -117.5,38.50973 -6.50938,2.17422 -108.258521,35.47323 -121.999999,39.92642 -14.172954,4.59302 -19.713103,5.5368 -24.610247,4.19241 C 17.368521,291.12826 9.8276707,284.69828 6.4505057,278.93558 3.2174247,273.41875 -0.04402229,260.53746 4.4970565e-4,253.46069 0.11387971,235.41091 9.7880987,217.46791 21.120435,214.28896 c 3.663803,-1.02777 33.862114,-10.25661 97.844885,-29.90216 6.875,-2.11093 38.0375,-11.75313 69.25,-21.4271 65.09363,-20.17507 140.80927,-43.61483 238.25,-73.756556 37.4,-11.56909 93.2,-28.83082 124,-38.359406 30.8,-9.528586 80.39098,-24.866485 110.20218,-34.08422 L 714.86969,0 726.1675,6.86401 c 12.13713,7.373934 53.30857,32.504298 71.29782,43.519 6.05,3.704377 33.725,20.577411 61.5,37.495634 27.775,16.918216 54.775,33.367456 60,36.553866 5.225,3.18641 11.1875,6.94675 13.25,8.3563 l 3.75,2.56283 0,37.89409 0,37.89409 -13.25,4.49223 c -7.2875,2.47072 -21.575,7.21058 -31.75,10.53302 -10.175,3.32244 -39.425,12.86856 -65,21.21361 -25.575,8.34505 -52.35,17.11296 -59.5,19.48425 -7.15,2.37129 -35.275,11.58844 -62.5,20.48255 -27.225,8.89411 -65.025,21.27949 -84,27.52308 -38.62561,12.70947 -71.42485,23.45378 -108.5,35.54224 -13.75,4.48322 -40.75,13.32335 -60,19.64472 -19.25,6.32137 -47.375,15.54338 -62.5,20.49334 -15.125,4.94997 -43.025,14.10263 -62,20.33926 -71.39526,23.46589 -81.05293,26.48197 -84.72842,26.46057 -2.07437,-0.0121 -5.57158,-0.84175 -7.77158,-1.8437 z m 13.55324,-7.1615 c 4.76056,-2.42866 9.17548,-8.22971 11.64037,-15.29504 2.57251,-7.37379 2.51691,-24.31653 -0.1023,-31.1778 -4.11711,-10.78516 -10.11179,-16.5 -17.30793,-16.5 -3.65995,0 -4.99837,0.61786 -8.67029,4.00252 -15.36377,14.16183 -13.34659,50.21358 3.30196,59.01407 4.60867,2.43616 6.29011,2.42955 11.13819,-0.0437 z m 20.14971,-6.91475 c 1.26338,-0.51805 16.69705,-5.65251 34.29705,-11.40992 48.25122,-15.78419 82.97841,-27.16256 125,-40.95629 20.9,-6.86049 58.925,-19.3113 84.5,-27.66847 54.4948,-17.80731 115.43574,-37.79008 119,-39.02055 1.375,-0.47468 14.875,-4.90952 30,-9.8552 58.13687,-19.01001 136.75551,-44.74533 165.5,-54.17539 54.21272,-17.78529 93.93678,-30.77343 97.75,-31.96024 l 3.75,-1.16713 0,-32.42245 c 0,-17.83235 -0.3375,-32.42177 -0.75,-32.42094 -0.4125,8.3e-4 -9.075,2.72192 -19.25,6.04687 -10.175,3.32495 -26.825,8.75457 -37,12.06582 -10.175,3.31125 -32.675,10.67617 -50,16.36647 -46.95786,15.42306 -155.60722,51.02638 -228,74.71333 -15.125,4.94891 -43.025,14.09281 -62,20.31978 -18.975,6.22697 -48.225,15.81763 -65,21.31258 -70.93795,23.23701 -146.76228,48.08023 -178.24444,58.40034 l -33.74443,11.06171 4.09793,4.44573 c 11.35188,12.31534 14.93377,36.07728 7.85169,52.08749 -1.07841,2.43793 -1.96075,4.6004 -1.96075,4.80549 0,0.65162 1.83052,0.40379 4.20295,-0.56903 z M 144.68508,359.4 c 8.24464,-5.02698 12.78024,-15.86158 12.78024,-30.52935 0,-14.66777 -4.5356,-25.50237 -12.78024,-30.52935 -12.21826,-7.4498 -25.69602,8.56308 -25.69602,30.52935 0,21.94051 13.49209,37.97041 25.69602,30.52935 z m 54.28024,-16.96584 c 20.625,-6.72414 41.325,-13.49522 46,-15.04686 19.69678,-6.53738 75.85765,-24.95793 122,-40.01553 27.225,-8.88431 52.65,-17.21745 56.5,-18.51809 3.85,-1.30063 30.625,-10.08008 59.5,-19.50988 28.875,-9.42981 68.25,-22.32152 87.5,-28.64826 36.19227,-11.89502 70.81683,-23.23884 114,-37.3491 32.95632,-10.7686 42.73749,-14.05786 44.26294,-14.88499 0.79318,-0.43008 -7.99768,-7.63664 -23.63407,-19.37469 -13.69336,-10.27945 -25.58024,-18.95209 -26.41529,-19.27253 -0.83505,-0.32044 -7.52472,1.29015 -14.86593,3.57909 -13.44043,4.19064 -19.89664,6.17898 -31.84765,9.80826 -3.575,1.08565 -32.15,9.92391 -63.5,19.64057 -31.35,9.71666 -84.45,26.15501 -118,36.52967 -33.55,10.37466 -86.65,26.81212 -118,36.52769 -31.35,9.71557 -59.7,18.47927 -63,19.47488 -8.21198,2.47758 -116.66315,35.96964 -118.36746,36.55443 -0.98092,0.33658 -0.6605,1.0253 1.13355,2.4365 3.23015,2.54083 8.25234,10.38895 10.22376,15.97656 4.30494,12.2015 3.9581,27.16508 -0.90895,39.21469 -1.36779,3.3863 -1.9054,5.77631 -1.24448,5.53251 0.63997,-0.23607 18.03858,-5.93079 38.66358,-12.65492 z M 36.86967,280.56154 c 15.212564,-15.21257 12.172457,-49.86013 -5.161423,-58.82383 -6.664396,-3.44629 -15.407958,2.09612 -20.305183,12.87114 -2.3703753,5.21537 -2.9129903,7.93734 -3.2470003,16.2882 -0.46297,11.57508 1.010841,17.99592 5.8681723,25.56541 3.919803,6.10848 8.186182,8.86958 13.738704,8.89134 3.810924,0.0149 4.84224,-0.52777 9.10673,-4.79226 z M 760.72124,158.28057 c 10.59075,-3.50593 19.14075,-6.6896 19,-7.07481 -0.14076,-0.38521 -8.13092,-6.19073 -17.75592,-12.90115 -9.625,-6.71042 -29.875,-20.84232 -45,-31.40423 -15.125,-10.561896 -28.7375,-20.003626 -30.25,-20.981596 l -2.75,-1.77815 0.0309,19.865006 0.0309,19.86501 27.71906,20.72287 c 15.24548,11.39757 28.16906,20.57405 28.71906,20.39218 0.55,-0.18188 9.66516,-3.19919 20.25592,-6.70513 z" />
</svg>
