<?xml version="1.0" encoding="UTF-8" standalone="no"?>
<svg id="svg2" xmlns:rdf="http://www.w3.org/1999/02/22-rdf-syntax-ns#" xmlns="http://www.w3.org/2000/svg" height="1197.2pt" width="1600pt" version="1.1" xmlns:cc="http://creativecommons.org/ns#" xmlns:dc="http://purl.org/dc/elements/1.1/" viewBox="0 0 1600 1197.1818">
<g id="g4259" transform="matrix(.34349 0 0 .34349 -1656.7 -5.9077)">
<path id="rect4256" d="m7730.1 17.2c-9.161-0.01566-18.319 0.12594-27.466 0.42031-137.67 3.94-276.28 39.739-393.3 113.69-73.83 46.54-138.12 109.73-180.32 186.54-1.36 4.05-5.32 5.7597-9.38 5.8297-119.68 23.53-239.32 48.97-358.93 71.87-46.61-23-90.38-51.62-137.49-73.72-106.72-49.36-224.57-77.589-342.47-73.109-89.72 3.84-184.08 30.609-247.45 97.539-52.08 53.17-70.539 127.12-96.529 194.48-3.24 4.92-2.3 14.279-8.771 16.439-367.68 83.05-735.08 167.74-1104.8 241.15-0.28 543.98-0.01 1088-0.1296 1632 688.49 322.42 1377.6 643.65 2070 957.73 83.16 37.97 167.26 73.969 249.23 114.49 33.06-17.42 64.64-37.799 99.38-51.959 495.03-226.84 997.53-436.8 1494.3-659.69 250.37-112.79 498.84-229.83 745.05-351.38 0.08-547.01 0.19-1094-0.06-1641-11.02-2.5-24.961-2.5697-31.591-13.08-392.3-73.44-784.3-147.83-1175.1-228.37 40.9-76.29 18.2-169.41-15.9-244.35-45.2-118.86-151-205.44-268-248.96-82.9-31.537-171.8-46.289-260.3-46.44zm5.168 202.27c48.796-0.13727 97.822 6.3184 143.09 25.217 50.73 20.21 95.55 53.56 132.06 93.93 20.82 22.06 35.382 51.06 37.01 81.65 1.1 28.96-12.58 56.749-31.99 77.489-164.82-29.23-328.92-62.91-493.92-91.25-61.84-10.88-123.88-20.899-185.57-32.409 26.48-29.66 60.68-51.54 96.08-69.1 84.891-41 174.63-77.32 269.55-84.45 11.185-0.66187 22.433-1.0449 33.693-1.0766zm-1383.3 228.19c32.989 0.0563 65.657 8.0844 97.315 16.269-80.351 12.39-160.76 24.431-241.21 36.261 32.82-33.26 79.57-49.051 125.54-51.691 6.125-0.58594 12.245-0.8495 18.354-0.83906z" fill="#1f464d"/>
<path id="path4" d="m7730.1 17.2c-9.1609-0.01566-18.318 0.12594-27.466 0.42031-137.67 3.94-276.28 39.739-393.3 113.69-73.83 46.54-138.12 109.73-180.32 186.54-1.36 4.05-5.3197 5.7597-9.3797 5.8297-119.68 23.53-239.32 48.97-358.93 71.87-46.61-23-90.381-51.62-137.49-73.72-106.72-49.36-224.57-77.589-342.47-73.109-89.72 3.84-184.08 30.609-247.45 97.539-52.08 53.17-70.54 127.12-96.53 194.48-3.24 4.92-2.3003 14.279-8.7703 16.439-367.68 83.05-735.08 167.74-1104.8 241.15-0.28 543.98-0.01 1088-0.1297 1632 688.49 322.42 1377.6 643.65 2070 957.73 83.16 37.97 167.26 73.969 249.23 114.49 33.06-17.42 64.64-37.799 99.38-51.959 495.03-226.84 997.53-436.8 1494.3-659.69 250.37-112.79 498.84-229.83 745.05-351.38 0.08-547.01 0.1906-1094-0.059-1641-11.02-2.5-24.961-2.5697-31.591-13.08-392.3-73.44-784.3-147.83-1175.1-228.37 40.9-76.29 18.2-169.41-15.9-244.35-45.2-118.86-151-205.44-268-248.96-82.9-31.537-171.8-46.289-260.3-46.44zm-29.569 44.514c93.334 0.45951 186.87 18 273.2 53.595 80.36 34.26 156.66 83.791 209.6 154.39 48.58 69.74 80.46 161.51 49.27 244.87-37.46 98.32-132.71 157.9-224.25 199.74-111 49.4-230.67 77.12-350.92 92.1-117.21 14.92-235.79 10.141-353.24 0.76096 11.71-21.75 5.6512-47.531 6.6812-70.141 103.23-31.46 211.4-43.2 318.06-58.12 122.28-10.87 245.91-38.95 352.87-101.15 44.94-27.55 90.74-65.17 102.9-119.08 10.8-48.57-13.38-96.299-44-132.36-37.24-44.59-84.501-79.57-132.94-111.05-61.29-34.13-133.38-43.2-202.57-41.15-97.33 4.92-193.05 33.78-278.2 80.83-78.97 46.35-152.78 112.02-185.2 199.83-25.14 69.98-22.759 146.15-8.2891 218.03-16.47 2.9-36.17-5.6788-52.45-11.819-27.22-17.19-61.84-30.7-74.12-63.02-5.72-38.84-5.94-78.781-0.7-117.76 12.69-75.76 51.24-145.21 101.45-202.57 48.37-55.88 107.28-102.06 171.34-138.67 86.77-45.71 183.65-71.491 281.54-76.411 13.304-0.62875 26.634-0.91096 39.967-0.84531zm34.738 157.76c48.794-0.13727 97.822 6.3184 143.09 25.217 50.73 20.21 95.549 53.56 132.06 93.93 20.82 22.06 35.381 51.06 37.011 81.65 1.1 28.96-12.581 56.749-31.991 77.489-164.82-29.23-328.92-62.91-493.92-91.25-61.84-10.88-123.88-20.899-185.57-32.409 26.48-29.66 60.681-51.54 96.081-69.1 84.89-41 174.63-77.32 269.55-84.45 11.186-0.66187 22.434-1.0449 33.694-1.0766zm-1461.9 67.672c83.82-0.34863 166.49 20.37 245.54 46.995 46.07 16 91.79 33.399 135.15 55.859 94.58 46.42 175.71 114.79 262.97 172.86-32.31 26.08-46.151 66.3-62.041 103.1-83.46-57.89-166-117.2-250.97-172.91-62.84-41.63-133.64-70.41-206.59-88.43-79.66-14.48-170.43 1.4891-229.02 60.739-45.48 49.08-48.34 118.94-55.38 181.83-0.12 83.4 47.02 160.05 109.6 212.24 96.14 80.49 215.43 136.85 341.61 145.36 135.53 11.73 271.58-41.401 371.18-132.29 40.8 15.67 83.161 33.39 125.48 43.22-55.83 54.51-112.45 111.44-183.88 145.23-98.27 46.86-209.76 54.29-316.95 54.08-107.98-2.89-215.12-29.199-312.76-75.289-65.97-27.21-122.4-73.63-168.62-127.37-48.5-50.49-72.59-117.82-95.33-182.65-25.4-68.62-10.5-143.28 7.7-211.71 30.24-121.25 138.89-222.06 265.53-230.5 5.5975-0.215 11.192-0.33145 16.78-0.35469zm819.51 80.172c2.7775-0.17912-1.1884 5.4881-1.814 6.8125-29 45.68-38.04 101.39-35.93 154.71-32.94-13.08-67.76-3.2903-99.8 7.0297-40.02-40.2-87.069-73.23-134.19-104.87-2.52-2.5-7.7306-3.8803-8.0406-7.9203 92.16-18.4 184.42-36.49 276.65-54.58 1.4831-0.78938 2.4825-1.1415 3.1234-1.1828zm223.93 37.642c154.67 27.33 309.08 56.631 463.68 84.561-0.67 1.81 7.4706-0.14 6.3406 2.35-169.41 43.74-338.69 88.559-510.13 123.79-2.24 0.22-7.0403 1.53-4.0703-4.2-3.63-45.15-10.001-91.9 1.5391-136.35 8.73-26.3 27.161-47.7 42.641-70.15zm-964.85 42.702c32.988 0.0563 65.656 8.0844 97.314 16.269-80.35 12.39-160.76 24.431-241.21 36.261 32.82-33.26 79.571-49.051 125.54-51.691 6.1266-0.58594 12.246-0.84949 18.355-0.83906zm128.01 36.291c4.5878-0.16443 8.9046 2.2716 13.089 4.1078 24.88 11.78 50.369 22.93 72.919 38.9-36.93-9.55-71.5-26.629-107.38-39.419 2.54-2.3 13.19-1.4703 18.15-3.0203 1.0893-0.35437 2.1631-0.5308 3.2219-0.56875zm-69.592 13.428c71.64 21.81 143.49 44.82 214.67 68.6 72.53 47.88 144.88 97.78 213.7 150.13-49.06 10.56-101.02 21.02-151.42 29.6-87.92-19.48-175.7-39.699-263.85-58.119-91.2-20.63-183.64-39.27-271.34-71.87 6.95-27.31 0.4397-67.46 32.33-80.35 75.09-13.6 150.72-24.751 225.91-37.991zm1448.4 12.211c41.22 3.52 82.771 10.809 123.56 18.089-54.94 47.54-125.6 74.16-197.05 83.53-162.83 24.22-324.45 56.731-485.8 88.491-2.72-11.38-10.261-20.26-17.661-28.92 114.24-31.73 229.21-61.259 343.67-92.339 77.87-22.57 155.43-46.3 233.28-68.85zm-835.22 48.931c16.356-0.19419 34.153 7.5038 37.106 24.919 6.35 70.61 72.009 131.42 143.64 128.42 27.03-2.07 65.841 8.9003 65.791 42.12 8.83 41.25-16.501 82.91-54.611 98.45-85.92 31.82-188.96 23.26-263.21-32.62-41.37-30.1-70.56-80.22-66.05-132.45 9.89-44.87 38.89-82.619 71.63-113.59 16.77-11.1 37.47-12.251 56.87-14.341 2.8266-0.56563 5.8056-0.87185 8.8344-0.90782zm1241.2 25.758c278.26 48.01 553.45 112.51 831.1 163.97 94.75 18 189.87 34.051 285 49.891-255.05 62.66-513.41 124.71-769.83 186.63-241.12-58.29-482.02-118.08-723.07-176.85 39.15-11.76 78.859-22.45 116.61-38.48 97.64-43.35 190.17-103.67 260.19-185.16zm-2340.3 9.1609c1.61 3.01-1.18 10.769-3.1 15.089-54.1 8.21-110.07 9.8903-161.6 30.17-17.36 7.14-35.44 17.229-44.58 34.359-11.28 21.66-1.9497 47.871 11.62 66.191 15.83 16.9 39.99 21.99 62.02 25 50.49 6.6 101.29-0.0494 151.81-2.2094 3.82 9.18 9.2906 18.06 11.291 27.85-54.3 9.98-110.42 18.309-160.02 43.919-17.71 10.15-36.151 23.04-42.791 43.37-3.65 15.43 3.6106 31.56 14.191 42.62 16.51 14.56 38.979 17.851 58.689 26.091-52.63 9.75-105.11 20.639-156.93 33.989-256.08-56.34-511.75-114.83-768.7-167.17-8.89 0.35-2.3291-2.429 0.2609-2.339 346.53-53.36 681.08-164.98 1027.8-216.93zm-6.8797 57.092c3.4186 0.10028 5.6625 1.4506 4.35 6.3375-3.32 23.87 3.8206 47.35 9.8906 69.83-53.72 10.12-110.5 13.02-163.31-3.1-11.8-5.5-30.27-14.06-24.55-30.2 8.68-20.41 31.671-28.459 51.961-31.609 35.84-4.07 71.679-8.2409 107.71-10.311 3.2175 0.86062 9.5546-1.0758 13.95-0.94687zm238.63 4.7375c20.73 6.04 41.711 13.18 62.391 20.08 8.86 4.62 14.18 20.949 2.15 25.409-18.72 6.76-39.81 7.3009-59.37 4.9109-1.73-16.54-7.8203-34.55-5.1703-50.4zm96.2 25.54c123.97 26.01 246.86 57.73 370 87.12-120.14 24.19-240.3 49.71-358.5 81.72-39.41-28.44-70.899-68.401-88.689-113.61 26.56-6.91 59.799-1.5103 79.739-24.22 8.91-8.61 0.01-21.489-2.55-31.009zm2260.9 34.864c-10.522 0.0413-21.047 0.31407-31.57 0.83594-43 2.3-85.88 8.7003-127.25 20.77-24.35 6.19-51.14 8.18-71.43 24.55-10.47 10.05-18.78 25.25-16.72 39.98 11.2 26.95 39.669 41.42 65.359 51.75 54.83 14 112.31 12.419 168.48 12.459 79.88-3.21 160.71-3.23 239.08-21 21.32-5.45 44.929-10.889 60.439-27.589 12.31-16.6-6.22-34.01-19-42.88-29.9-19.25-62.18-37.64-98.05-41.95-55.797-10.614-112.52-17.15-169.34-16.927zm41.455 35.344c34.676-0.17032 69.542 2.8869 102.9 12.572 13.9 4.77 30.529 9.6297 37.959 23.43 3.93 20.89-22.059 26.821-36.959 32.411-69.53 17.72-142.22 15.989-213.36 14.159-32.05-0.43-66.389 7.4006-96.109-8.5094-16.32-7.55-19.109-35.911-0.01-42.191 57.44-22.96 120.4-27.93 181.63-31.28 7.9613-0.34125 15.952-0.55289 23.955-0.59218zm-1715 12.21c2.6844 0.27412 2.4926 5.1769 3.8313 7.3469 9.36 29.92 31.11 53.96 57.1 70.75-33.89 41.87-80.901 72.311-130.69 92.561-143.94 56.07-310.77 34.17-444.09-40.15 155.1-43.11 310.47-85.46 467.08-122.83 14.87-3.99 30.27-5.0906 45.43-7.4906 0.5138-0.17125 0.9556-0.22666 1.339-0.1875zm985.62 62.714c7.0904-0.0252 14.172 0.62184 20.909 2.9531 218.22 61.76 437.1 121.84 655.07 184.06-91.8 23.67-183.43 48.679-275.56 70.809-43.21-41.65-94.579-73.39-146.46-102.97-104.16-57.44-213.82-104.27-325.07-146.04 15.73-7.35 39.779-6.001 58.409-8.261 4.1888-0.28128 8.4472-0.538 12.702-0.55312zm1621.9 3.2031c0.82 356.39 3.3203 712.9 3.4703 1069.2-27.58-27.43-52.18-60.819-89.68-75.239-67.88-23.77-153.96-16.25-205.1 38.73-27.72 30.82-57.99 61.329-73.42 100.59-20.77 53.61-20.019 112.56-19.909 169.12 1.09 81.23 23.94 165.65 81.5 225.48 32.87 40.66 85.44 63.23 137.68 57.72 30.93-2.57 63.349-4.1494 91.539-18.509 29.19-15.37 46.231-46.311 73.191-63.961 1.6 24.52 1.3297 52.33 2.3797 78.2-11.7 7.51-23.99 14.08-36.77 19.55-258.78 119.09-517.9 237.61-775.26 359.66-4.96-84.69-12.691-169.54-8.4406-254.42 45.19 1.69 88.021-24.35 112.59-61.35 46.22-67.88 55.13-164.66 10.82-235.61-25.97-41.62-75.411-63.411-123.49-62.581-0.44-10.55-0.4391-21.099-0.3391-31.619 20.31 6.62 39.08 17.69 59.78 23.35 8.55 1.81 20.879 2.9097 26.389-5.4703-22.53-31.63-53.979-54.331-85.509-75.941-1.27-69.21-0.26-138.64-0.5-207.93 68.09-2.55 138.5-18.891 205.46-36.541 22.42-8.67 45.311-16.479 67.361-25.919-9.91-23.3-40.33-21.921-61.63-24.861-69.64-12.49-139.8-24.759-210.87-21.859 2.52-16.98 5.9197-33.89 9.0797-50.78 90.83 12.94 189.64-17.73 248.79-89.9 47.87-56.77 66.71-133.09 63.78-206.19-1.9-85.68-21.961-175.65-78.611-242.46-59.21-72.36-153.53-103.29-243.54-113 0.14-17.09 0.07-34.181 0.02-51.261 272.58-60.05 545.69-118.15 816.5-185.88 0.69-0.08 2.0591-0.24032 2.7391-0.32032zm-4595.1 3.16c264.24 60.6 528.42 121.61 792.62 182.38 0.93 148.37 0.049 296.79 0.4391 445.18-41.94-4.61-87.299 2.1591-120.97 29.239-70.93 54.42-81.871 172.77-17.561 236.39 35.71 36.08 90.751 42.42 138.71 34.83-0.39 337.5-0.4303 675.02 0.03 1012.5-195.55-85.49-390.93-171.51-585.2-259.9-71.84-33.2-143.73-66.37-214.06-102.65 1.04-526.03 3.1506-1052 5.9906-1578zm1123.9 9.2282c2.8525-0.0697 5.5281 0.30376 7.7031 1.7625 7.53 23.39 22.93 42.73 37.38 62-47.28 4.51-94.37 10.9-141.58 16.12-27.24 6.85-55.14-7.3113-76.25-23.531-12.5-10.69 4.1594-25.53 15.259-28.45 45.45-18.07 94.91-22.729 143.25-26.839 4.2375 0.4 9.4834-0.9464 14.238-1.0625zm1705.1 0.53904c16.949-0.0124 31.267 12.108 46.891 18.053 125.12 61.79 257.76 109.19 375.08 185.93 28.39 18.82 57.13 38.68 79.38 64.72 33.19 111.53 36.021 228.91 46.911 343.98 6.7 87.96 17.679 181.88 72.709 254.29 51.51 58.44 131.58 78.359 205.79 88.189 94.03 13.36 190.57 8.6103 284.22 15.57-130.66 37.92-269.08 35.87-403.03 19.25-34.1-3.27-67.32-13.5-101.68-14.18 20.26 27.9 44.41 52.77 67.95 77.92 88.06 88.67 186.15 167.52 291.7 234.38-65.77-24.71-129.31-55.12-195.05-80.05-104.99-43.94-208.35-93.651-301.68-159.29-52.46-37.07-104.46-78.08-138.25-133.75-52.26-84.04-56.91-186.11-65.05-281.94-9.53-92.1-20.62-184.85-48.55-273.47-5.75-20.68-17.24-39.45-33.35-53.65-83.13-69.64-169.82-136.25-266-187-79.25-42.77-164.36-73.76-251.09-97.42 109.16-7.71 218.52-13.88 327.75-21.12 1.814-0.2812 3.5966-0.4112 5.35-0.41248zm-424.6 30.4c81.39 18.78 160.34 48.45 236.43 81.78-49.24-10.95-97.529-25.89-146.97-36.12-36.41-9.57-71.451-23.73-107.88-33.13 5.71-4.69 11.74-9.2797 18.42-12.53zm-68.97 29.92c128.05 38.62 258.25 73.55 390.16 97.97 9.77 1.16 17.47 7.7394 25.97 12.059 77.62 43.67 161.93 84.58 215.37 158.7-221.7 44.13-443.63 88.24-662.05 146.85-9.25 1.58-18.129 6.2694-27.489 6.4094-107.9-27.15-216.13-53.079-323.93-80.559-13.04-21.83-0.1306-47.59 13.859-65.45 95.43-85.45 190.11-172.08 291.65-250.33 19.7-21.39 52.389-11.77 76.459-25.65zm-1141.4 43.777c1.6683 0.11576 3.2163 1.1178 4.1688 2.6328 39.28 48.74 89.281 90.091 147.73 113.56-34.16 5.09-71.45 6.8294-105.95 15.709-6.71 1.08-13.66 5.38-20.45 2.45-114.6-36.5-234.41-53.129-351.64-77.409 108.1-19.16 216.35-37.52 324.45-56.75 0.565-0.17248 1.1346-0.23232 1.6906-0.19376zm3187.4 4.4313c-3.556 0.007-7.158 0.31216-10.789 0.94216-29.56 3.32-49.48 29.8-57.55 56.63-15.22 50.58-23.379 107.02-5.1094 157.83 16.72 39.93 69.93 43.82 105.93 31.97 19.44-4.4 36.669-18.06 40.909-38.08 13.3-48.41 19.191-101.64 2.0609-149.82-10.966-31.728-41.076-59.538-75.452-59.472zm-4050.8 47.983c-7.0089-0.0626-14.046 0.26688-21.088 1.0094-82.89 6.12-149.49 72.729-173.53 149.54-18.98 66.15-35.339 140.67-6.7688 206.56 18.35 42.42 55.279 74.98 97.659 92.32 84.93 34.34 188.75 21.049 260.6-36.391 42.82-34.07 68.46-87.399 70.18-141.91 0.38-63.14-16.84-127.59-54.68-178.78-39.567-54.52-104.62-91.743-172.37-92.348zm4054.8 11.84c17.75 1.86 32.71 15.771 37.53 32.741 7.02 24.16 1.9606 49.429 0.1906 73.959-1.99 16.33-3.0597 35.019-15.93 46.959-15.06 10.3-35.211 1.0612-44.911-12.319-23.98-29.6-19.089-70.05-12.419-104.9 3.04-17.9 16.879-34.361 35.539-36.441zm-665.94 22.736c1.4991 0.1178 2.2812 1.0375 0.5875 4.8438 1.82 242.64 3.9909 485.27 4.8109 727.9-49.78-5.23-100.34-12.12-147.26-30.47-58.47-22.48-102.66-73.529-124.74-131.24-18.05-45.72-21.33-95.35-25.17-143.83-4.08-81.26-17.75-161.55-26.7-242.32-2.75-31.04-6.2409-61.97-11.861-92.6 108.46-32.57 217.31-64.66 327.24-92.08 1.035-0.056 2.1927-0.2753 3.0922-0.2047zm-2873.4 8.0547c122.87 30.96 248.69 49.139 372.01 78.269-0.13 614.47-0.049 1228.9-0.039 1843.4-127.63-46.41-254.09-99.161-371.62-167.71-0.89-584.62-0.21-1169.3-0.35-1754zm-522.49 6.9204c64.907 0.2232 129.03 36.341 161.41 92.919 22.23 36.82 30.96 80.4 31.13 123.02 2.62 41.09-21.67 79.42-53.05 104-43.29 33.52-99.721 46.1-153.64 43.62-59.95-2.48-124.79-33.351-146.16-92.911-18.82-59.97-21.93-129.13 8.6297-185.88 26.69-50.49 82.12-82.44 138.7-84.33 4.325-0.3087 8.6556-0.4539 12.983-0.439zm1986.3 3.8187c-8.4305 0.021-16.859 0.2325-25.277 0.65-18.96 2.04-40.43 1.4297-56.33 13.53-10.56 7.75-3.7906 22.62 3.6094 30.1 21.1 21.35 46.389 39.871 75.459 48.481 77.67 26.81 160.65 44.799 243.07 33.659 21.91-2.73 47.891 0.8603 65.191-15.78 6.17-7.89 14.469-18.441 8.7891-28.841-11.82-23.97-36.009-40.57-61.319-47.77-57.7-17.27-117.83-23.179-177.48-29.519-25.11-2.925-50.421-4.5742-75.712-4.5109zm53.57 28.064c43.841-0.1636 87.377 7.5618 130.45 15.166 24.08 3.67 50.939 2.4906 71.639 17.141 10.91 6.21 12.54 26.25-0.25 31.05-34.23 10.5-70.759 7.25-106.07 7.5-46.32-3.39-94.15-8.8397-136.22-29.83-9.55-5.33-23.701-13.08-20.341-26.05 9.17-12.95 27.78-12.26 41.98-14.4 6.275-0.3687 12.545-0.5532 18.808-0.5765zm-965.91 11.247c86.62 31.5 177.8 54.62 270.27 57.5-5.54 8.41-13.689 15.319-17.889 24.859-118.08-25.12-236.09-52.38-355.19-71.53 31.26-3.81 62.64-6.8303 93.93-10.52 2.22-0.08 6.6597-0.2294 8.8797-0.3094zm2382.6 16.727c40.227-0.629 77.264 18.341 113.74 33.162 72.73 29.92 125.97 95.991 150.42 169.59 28.53 86.33 26.159 185.32-17.161 266.41-23.3 42.91-60.799 79.401-107.49 95.511-46.03 16.64-96.741 13.599-143.29 0.7094-0.67-188.4-0.4203-376.85-0.1203-565.26 1.3044-0.062 2.6055-0.1032 3.9031-0.1234zm-2510.2 24.2c123.82 24.14 247.57 48.919 371.33 73.459 35.19 120.03 54.15 245.92 46.33 371.1-6.74 99.23-33.34 198.33-85.38 283.62-81.05 130.95-207.04 224.88-328.14 315.71 58.3 19.2 120.84 1.7888 176.46-18.381 60.11-22.79 116.42-54.96 168.43-92.58 39.12-29.95 77.44-62.9 103.55-105.25-20.58 142.7-38.93 286.36-75.58 426.14 74.34-88.74 148.69-179.44 202.09-282.83 10.84-17.93 22.12-35.58 31.83-54.17 76.66-139.71 91.17-303.82 85.4-460.34-1.84-98.82 3.6003-198.05-7.1797-296.52 100.4 23.38 200.98 47.29 300.9 72.42 2.22 693.09 4.2991 1386.2 5.1891 2079.3-331.44-152.44-661.95-307.1-994.04-458.19-2.86-23.54-0.4712-49.15-1.1312-73.43 45.31-6.1 88.75-40.591 106.37-83.761 16.43-66.98 7.9303-141.79-27.18-201.67-17.44-28.59-45.871-50.949-79.091-57.319-0.4-479.1-0.1-958.2-0.2-1437.3zm690.05 0.067c2.4926 0.092-4.011 3.5338-5.6297 4.3125-37.36 19.56-58.4 64.01-51.28 105.38 7.67 44.07 8.2394 88.93 10.509 133.5 5.37 127.71 15.281 256.09 0.2406 383.53-16.63 157.43-80.821 307.61-176.36 433.18-4.48-48.13 8.4803-95.521 17.07-142.49 11.54-68.9 24.75-140.69 8.4203-209.84-25.76 33.65-49.381 69.029-77.061 101.22-76.08 92.15-180.01 165.24-298.71 188.16 46.24-34.86 90.749-73.681 131.41-115.46 57.11-59.74 111.89-123.49 149.17-197.83 39.42-76.19 61.05-161.27 64.07-246.95 4.84-116.96-21.291-232.42-52.241-344.45-13.28-28.72 7.7509-55.33 31.311-69.72 24.63-4.32 49.66 1.05 74.43-1.35 58.21-1.35 115.76-10.989 172.99-21.009 0.7638-0.1413 1.3033-0.1959 1.6594-0.1828zm1019.9 69.381c7.058-0.074 10.881 8.0938 15.53 13.072 47.55 61.27 38.11 144.03 44.45 216.55-2.19 85.18 7.5503 171.27 38.87 251.03 25.01 66.32 60.729 130.22 113.46 178.54 28.06 25.31 57.951 48.53 86.211 73.63 3.25 3.64 10.49 5.6391 8.5703 11.989-0.12 353.36 0.03 706.73-0.07 1060.1-278.17 122.86-556.79 244.85-835.1 367.43-44.74 19.04-88.9 40.249-133.98 57.989 0.29-692.85-0.031-1385.7 0.1594-2078.6 186.85-39.99 374.18-78.77 558.8-128.42 32.5-9.21 65.42-17.19 98.82-22.35 1.5547-0.6516 2.9727-0.9472 4.2797-0.961zm-2186.6 298.6c-0.94 75.07 0.2409 150.17-0.5891 225.24-21.94 6.17-46.05 2.5391-64.97-10.161-32.44-19.38-66.351-45.98-74.161-85.05-6.31-31.06 11.821-61.389 34.931-80.639 29.59-24.62 66-39.54 102.98-49.05 0.45-0.08 1.3594-0.2506 1.8094-0.3406zm1920.9 110.89c-6.0823-0.022-12.297 0.465-18.647 1.5188-29.57 2.93-60.811 10.88-82.391 32.65-55.79 55.84-93.651 127.94-114.19 203.77-20.44 65.33-12.039 135.07-1.3594 201.38 7.03 51.8 30.841 98.791 48.641 147.34 9.59 25.6 20.24 52.18 41.73 70.28 29.76 28.14 67.07 52.76 109.18 54.63 67.59-0.06 129.21-41.019 168.81-93.609 33.25-48.33 45.421-106.87 56.531-163.45 6.97-34.03 7.4091-69.041 4.4391-103.54-6.03-90.03-19.87-184.22-71.52-260.47-36.024-42.558-82.427-90.29-141.22-90.5zm-2.775 45.589c18.776-0.094 37.667 4.6221 52.788 16.111 21.8 17.5 36.849 41.389 53.759 63.269 52.13 80.34 63.291 178.7 66.631 272.25 0.43 41.43-4.6903 83.001-16.67 122.74-11.78 55.52-52.921 100.13-98.061 131.95-38.35 21.1-96.199 33.85-129.74-2.1297-32.61-37.06-67.331-76.34-76.391-126.58-29.15-98.94-50.429-208.05-14.739-308.19 14.91-44.72 36.66-87.31 64.98-125.02 21.27-24.09 52.199-41.379 84.509-43.589 4.2731-0.51 8.5998-0.7891 12.933-0.8109zm1717 185.83c53.41 1.22 94.13 44.671 125.25 83.811 29.53 45.52 46.66 99.89 44.43 154.5-0.91 58.81 9.6897 121.91-16.27 177.13-17.31 37.99-46.479 69.291-78.309 95.691-27.84 20.56-64.421 30.959-98.641 25.459-67.88-22.54-112.32-87.809-130.5-154.51-17.51-65.37-34.08-136.35-12.85-202.93 17.62-55.76 51.26-105.45 92.65-146.35 19.84-19.29 46.381-31.79 74.241-32.8zm-3930.1 16c-44.04 1.47-92.569 10.94-122.56 46.2-58.07 59.88-114.66 133.9-115.34 221.15 5.8 104.66 86.87 190.46 177.5 234.21 27.48 15.93 60.87 11.84 89.93 2.7203 51.6-15.33 104.16-36.201 141.93-76.061 31.19-35.14 51.871-80.08 56.061-127.03 3.35-88.25-32.44-175.05-88.27-242.28-31.89-42.86-88.15-58.299-139.25-58.909zm3032.9 5.4891c64.15 8.95 128.84 14.831 193.69 13.091 0.23 55.92-0.1203 111.84 0.1797 167.77-71.53-51.47-135.49-115.65-193.87-180.86zm-3039.4 24.862c30.887 0.05 61.602 11.074 85.472 30.788 65.78 50.52 108.2 132.06 108.79 215.32 1.57 46.29-25.499 87.591-57.419 118.69-38.14 35.6-84.331 67.789-137.54 73.519-29.32 4.21-56.81-10.44-80.52-25.83-55.43-39.63-94.9-102.92-101.98-171.07-5.95-74.56 27.61-149.45 81.6-200.06 24.05-22.65 54.8-39.33 88.37-40.7 4.4-0.4475 8.8157-0.6649 13.228-0.6578zm2847 75.3c36.5 17.39 71.039 39.731 109.41 53.591 90.84 38.51 182.32 76.009 276.38 105.94 1.02 226.23 0.2491 452.57 0.3891 678.82-125.38 59.19-255.92 109.14-377.2 176.11-3.31-338.14-5.0597-676.38-8.9797-1014.5zm456.85 261.07c30.289-0.3851 60.153 14.672 76.542 40.555 31.19 49.99 28.83 117.82-1.65 167.62-19.27 32.32-56.661 52.39-94.341 49.43-0.4-85.23 0.021-170.47-0.2094-255.69 1.67-0.2 5.0191-0.5991 6.6891-0.7891 4.3062-0.6988 8.6418-1.07 12.969-1.125zm-1812.2 85.275c-54.05 0.53-104.1 31.879-133.55 76.289-39.41 39.43-62.57 92.16-75.22 145.78-26.19 111.66-11.5 238.22 59.68 330.99 26.78 35.35 63.031 64.33 105.29 78.72 59.54 20.41 127.02 6.1803 178.5-28.23 51.32-43.52 97.45-99.641 109.2-167.78 18.1-97.82 5.5288-200.7-29.131-293.57-37.76-81.55-123.55-143.04-214.77-142.2zm16.08 55.119c27.631-0.1075 54.278 12.202 76.1 28.661 37.41 28.95 65.679 67.879 90.009 108.01 37.85 93.08 38.701 204.1-9.6391 293.6-20.42 36.8-50.98 69.75-91.02 84.98-62.61 23.52-135.24-0.7597-181.2-46.73-52.37-53.53-73.73-129.57-78.5-202.56-4.4-56.95 10.259-116.68 47.589-160.82 34.25-45.24 74.38-96.899 134.77-104.31 3.9762-0.5462 7.9433-0.8159 11.891-0.8312zm-729.8 256.5c32.85 13.3 59.811 42.03 68.241 76.82 8.38 35.2 5.19 72.599-4.8 107.11-14.28 24.63-36.17 48.02-63.43 57.72 0.41-80.55 0.4491-161.11-0.011-241.65zm1552.3 113.56c-4.459-0.029-8.9398 0.2079-13.422 0.7235-49.89 3.64-76.83 54.74-88.03 98.07-21.11 75.59-9.7897 158.96 28.67 227.14 10.83 21.16 26.58 40.42 46.78 53.2 27.5 17.69 64.631 13.34 91.641-3.25 33.49-21.39 55.69-56.45 70.33-92.67 31.33-71.76 14.419-157.7-32.041-219-19.802-38.806-60.826-63.937-103.93-64.214zm12.803 45.295c30.192 0.1158 51.711 28.792 67.095 51.958 41.14 61.55 31.089 143.28 0.059 206.94-11.83 23.59-36.619 47.959-65.389 40.459-22.4-6.27-42.5-21.429-55.52-40.559-9.69-16.33-9.4906-36.09-13.941-54.07-5.66-26.18-15.879-52.129-13.809-79.339 4.99-28.4 12.65-56.65 25.63-82.5 10.35-19.64 26.48-39.07 49.72-42.52 2.0906-0.2562 4.1419-0.3765 6.1547-0.3687z"/>
<path id="path6" d="m7700.5 61.714c-13.334-0.06564-26.664 0.21656-39.967 0.84531-97.89 4.92-194.77 30.701-281.54 76.411-64.06 36.61-122.97 82.79-171.34 138.67-50.21 57.36-88.76 126.81-101.45 202.57-5.24 38.98-5.02 78.921 0.7 117.76 12.28 32.32 46.9 45.83 74.12 63.02 16.28 6.14 35.98 14.719 52.45 11.819-14.47-71.88-16.851-148.05 8.2891-218.03 32.42-87.81 106.23-153.48 185.2-199.83 85.15-47.05 180.87-75.91 278.2-80.83 69.19-2.05 141.28 7.02 202.57 41.15 48.44 31.48 95.701 66.46 132.94 111.05 30.62 36.06 54.8 83.789 44 132.36-12.16 53.91-57.96 91.53-102.9 119.08-106.96 62.2-230.59 90.28-352.87 101.15-106.66 14.92-214.83 26.66-318.06 58.12-1.03 22.61 5.0288 48.391-6.6812 70.141 117.45 9.38 236.03 14.159 353.24-0.76096 120.25-14.98 239.92-42.7 350.92-92.1 91.54-41.84 186.79-101.42 224.25-199.74 31.2-83.36-0.7-175.13-49.3-244.87-52.9-70.6-129.2-120.13-209.6-154.39-86.3-35.596-179.9-53.136-273.2-53.596zm-1427.2 225.44c-5.588 0.0232-11.182 0.13969-16.78 0.35469-126.6 8.44-235.3 109.25-265.5 230.5-18.22 68.43-33.12 143.09-7.7 211.72 22.74 64.83 46.83 132.16 95.33 182.65 46.22 53.74 102.65 100.16 168.62 127.37 97.64 46.09 204.78 72.399 312.76 75.289 107.19 0.21 218.68-7.2197 316.95-54.08 71.43-33.79 128.05-90.72 183.88-145.23-42.32-9.83-84.681-27.55-125.48-43.22-99.6 90.89-235.65 144.02-371.18 132.29-126.18-8.51-245.47-64.871-341.61-145.36-62.58-52.19-109.72-128.84-109.6-212.24 7.04-62.89 9.8997-132.75 55.38-181.83 58.59-59.25 149.36-75.219 229.02-60.739 72.95 18.02 143.75 46.8 206.59 88.43 84.97 55.71 167.51 115.02 250.97 172.91 15.89-36.8 29.731-77.02 62.041-103.1-87.2-58.07-168.3-126.44-262.9-172.86-43.36-22.46-89.08-39.859-135.15-55.859-79.05-26.625-161.72-47.344-245.54-46.995zm137 210.23c-75.19 13.24-150.82 24.391-225.91 37.991-31.89 12.89-25.38 53.04-32.33 80.35 87.7 32.6 180.14 51.24 271.34 71.87 88.15 18.42 175.93 38.639 263.85 58.119 50.4-8.58 102.36-19.04 151.42-29.6-68.82-52.35-141.17-102.25-213.7-150.13-71.18-23.78-143.03-46.79-214.67-68.6zm1448.4 12.211c-77.85 22.55-155.41 46.28-233.28 68.85-114.46 31.08-229.43 60.609-343.67 92.339 7.4 8.66 14.941 17.54 17.661 28.92 161.35-31.76 322.97-64.271 485.8-88.491 71.45-9.37 142.11-35.99 197.05-83.53-40.79-7.28-82.341-14.569-123.56-18.089zm-835.22 48.931c-3.0288 0.036-6.0078 0.34219-8.8344 0.90782-19.4 2.09-40.1 3.2406-56.87 14.341-32.74 30.97-61.74 68.719-71.63 113.59-4.51 52.23 24.68 102.35 66.05 132.45 74.25 55.88 177.29 64.44 263.21 32.62 38.11-15.54 63.441-57.2 54.611-98.45 0.05-33.22-38.761-44.19-65.791-42.12-71.63 3-137.29-57.809-143.64-128.42-2.9531-17.415-20.751-25.113-37.106-24.919zm-183.9 204.69c-0.3834-0.0392-0.8252 0.0163-1.339 0.1875-15.16 2.4-30.56 3.5006-45.43 7.4906-156.61 37.37-311.98 79.72-467.08 122.83 133.32 74.32 300.15 96.22 444.09 40.15 49.79-20.25 96.801-50.691 130.69-92.561-25.99-16.79-47.74-40.83-57.1-70.75-1.3387-2.17-1.1469-7.0728-3.8313-7.3469zm985.62 62.714c-4.2544 0.0151-8.5128 0.27184-12.702 0.55312-18.63 2.26-42.679 0.91096-58.409 8.261 111.25 41.77 220.91 88.599 325.07 146.04 51.88 29.58 103.25 61.32 146.46 102.97 92.13-22.13 183.76-47.139 275.56-70.809-217.97-62.22-436.85-122.3-655.07-184.06-6.7375-2.3313-13.819-2.9783-20.909-2.9531zm-144.25 16.12c-1.7534 0.001-3.536 0.13128-5.35 0.41248-109.23 7.24-218.59 13.41-327.75 21.12 86.73 23.66 171.84 54.65 251.09 97.42 96.18 50.75 182.87 117.36 266 187 16.11 14.2 27.6 32.97 33.35 53.65 27.93 88.62 39.02 181.37 48.55 273.47 8.14 95.83 12.79 197.9 65.05 281.94 33.79 55.67 85.79 96.68 138.25 133.75 93.33 65.64 196.69 115.35 301.68 159.29 65.74 24.93 129.28 55.34 195.05 80.05-105.55-66.86-203.64-145.71-291.7-234.38-23.54-25.15-47.69-50.02-67.95-77.92 34.36 0.68 67.58 10.91 101.68 14.18 133.95 16.62 272.37 18.67 403.03-19.25-93.65-6.96-190.19-2.2103-284.22-15.57-74.21-9.83-154.28-29.749-205.79-88.189-55.03-72.41-66.009-166.33-72.709-254.29-10.89-115.07-13.721-232.45-46.911-343.98-22.25-26.04-50.99-45.9-79.38-64.72-117.3-76.81-250-124.21-375.1-186-15.624-5.945-29.941-18.066-46.891-18.053zm-424.6 30.41c-6.68 3.25-12.71 7.8397-18.42 12.53 36.43 9.4 71.471 23.56 107.88 33.13 49.44 10.23 97.729 25.17 146.97 36.12-76.09-33.33-155.04-63-236.43-81.78zm-1210.4 73.697c-0.556-0.0386-1.1256 0.0213-1.6906 0.19376-108.1 19.23-216.35 37.59-324.45 56.75 117.23 24.28 237.04 40.909 351.64 77.409 6.79 2.93 13.74-1.37 20.45-2.45 34.5-8.88 71.79-10.619 105.95-15.709-58.45-23.47-108.45-64.821-147.73-113.56-0.9525-1.515-2.5005-2.517-4.1688-2.6328zm2525.4 86.989c-0.8995-0.071-2.0572 0.1485-3.0922 0.2047-109.93 27.42-218.78 59.51-327.24 92.08 5.62 30.63 9.1109 61.56 11.861 92.6 8.95 80.77 22.62 161.06 26.7 242.32 3.84 48.48 7.1203 98.11 25.17 143.83 22.08 57.71 66.269 108.76 124.74 131.24 46.92 18.35 97.481 25.24 147.26 30.47-0.82-242.63-2.9909-485.26-4.8109-727.9 1.6937-3.8063 0.9116-4.726-0.5875-4.8438zm-2873.4 8.0547c0.14 584.65-0.54 1169.3 0.35 1754 117.53 68.55 243.99 121.3 371.62 167.71-0.01-614.47-0.091-1228.9 0.039-1843.4-123.32-29.13-249.14-47.309-372.01-78.269zm1114 90.977c-0.3561-0.013-0.8956 0.041-1.6594 0.1828-57.23 10.02-114.78 19.659-172.99 21.009-24.77 2.4-49.8-2.97-74.43 1.35-23.56 14.39-44.591 41-31.311 69.72 30.95 112.03 57.081 227.49 52.241 344.45-3.02 85.68-24.65 170.76-64.07 246.95-37.28 74.34-92.06 138.09-149.17 197.83-40.66 41.78-85.169 80.601-131.41 115.46 118.7-22.92 222.63-96.011 298.71-188.16 27.68-32.19 51.301-67.569 77.061-101.22 16.33 69.15 3.1197 140.94-8.4203 209.84-8.59 46.97-21.55 94.361-17.07 142.49 95.54-125.57 159.73-275.75 176.36-433.18 15.04-127.44 5.1294-255.82-0.2406-383.53-2.27-44.57-2.8394-89.43-10.509-133.5-7.12-41.37 13.92-85.82 51.28-105.38 1.6187-0.7787 8.1223-4.2209 5.6297-4.3125zm1571.2 731.86c58.38 65.21 122.34 129.39 193.87 180.86-0.3-55.93 0.05-111.85-0.1797-167.77-64.85 1.74-129.54-4.1406-193.69-13.091zm-192.4 100.1c3.92 338.08 5.6697 676.32 8.9797 1014.5 121.28-66.97 251.82-116.92 377.2-176.11-0.14-226.25 0.6309-452.59-0.3891-678.82-94.06-29.93-185.54-67.429-276.38-105.94-38.37-13.86-72.909-36.201-109.41-53.591z" fill="#dad6ca"/>
<path id="path10" d="m7092.8 367.32c-0.6409 0.0413-1.6403 0.39344-3.1234 1.1828-92.23 18.09-184.49 36.18-276.65 54.58 0.31 4.04 5.5206 5.4203 8.0406 7.9203 47.12 31.64 94.169 64.67 134.19 104.87 32.04-10.32 66.86-20.11 99.8-7.0297-2.11-53.32 6.9297-109.03 35.93-154.71 0.6256-1.3244 4.5915-6.9916 1.814-6.8125zm223.93 37.642c-15.48 22.45-33.911 43.85-42.641 70.15-11.54 44.45-5.1691 91.2-1.5391 136.35-2.97 5.73 1.8303 4.42 4.0703 4.2 171.44-35.23 340.72-80.049 510.13-123.79 1.13-2.49-7.0106-0.54-6.3406-2.35-154.6-27.93-309.01-57.231-463.68-84.561zm-836.85 78.992c-1.0588 0.038-2.1326 0.21438-3.2219 0.56875-4.96 1.55-15.61 0.72031-18.15 3.0203 35.88 12.79 70.45 29.869 107.38 39.419-22.55-15.97-48.039-27.12-72.919-38.9-4.1844-1.8362-8.5012-4.2722-13.089-4.1078zm1784.7 100.33c-70.02 81.49-162.55 141.81-260.19 185.16-37.75 16.03-77.459 26.72-116.61 38.48 241.05 58.77 481.95 118.56 723.07 176.85 256.42-61.92 514.78-123.97 769.83-186.63-95.13-15.84-190.25-31.891-285-49.891-277.65-51.46-552.84-115.96-831.1-163.97zm-2340.3 9.1609c-346.76 51.95-681.31 163.57-1027.8 216.93-2.59-0.09-9.1509 2.689-0.2609 2.339 256.95 52.34 512.62 110.83 768.7 167.17 51.82-13.35 104.3-24.239 156.93-33.989-19.71-8.24-42.179-11.531-58.689-26.091-10.58-11.06-17.841-27.19-14.191-42.62 6.64-20.33 25.081-33.22 42.791-43.37 49.6-25.61 105.72-33.939 160.02-43.919-2-9.79-7.4706-18.67-11.291-27.85-50.52 2.16-101.32 8.8094-151.81 2.2094-22.03-3.01-46.19-8.1-62.02-25-13.57-18.32-22.9-44.531-11.62-66.191 9.14-17.13 27.22-27.219 44.58-34.359 51.53-20.28 107.5-21.96 161.6-30.17 1.92-4.32 4.71-12.079 3.1-15.089zm328 87.36c2.56 9.52 11.46 22.399 2.55 31.009-19.94 22.71-53.179 17.31-79.739 24.22 17.79 45.21 49.279 85.171 88.689 113.61 118.2-32.01 238.36-57.53 358.5-81.72-123.14-29.39-246.03-61.11-370-87.12zm2260.9 34.864c56.819-0.22318 113.54 6.3122 169.34 16.927 35.87 4.31 68.15 22.7 98.05 41.95 12.78 8.87 31.31 26.28 19 42.88-15.51 16.7-39.119 22.139-60.439 27.589-78.37 17.77-159.2 17.79-239.08 21-56.17-0.04-113.65 1.5406-168.48-12.459-25.69-10.33-54.159-24.8-65.359-51.75-2.06-14.73 6.2503-29.93 16.72-39.98 20.29-16.37 47.08-18.36 71.43-24.55 41.37-12.07 84.25-18.47 127.25-20.77 10.523-0.52187 21.048-0.79461 31.57-0.83594zm934.06 113.47c-0.68 0.08-2.0491 0.24032-2.7391 0.32032-270.81 67.73-543.92 125.83-816.5 185.88 0.05 17.08 0.1197 34.171-0.02 51.261 90.01 9.71 184.33 40.64 243.54 113 56.65 66.81 76.711 156.78 78.611 242.46 2.93 73.1-15.91 149.42-63.78 206.19-59.15 72.17-157.96 102.84-248.79 89.9-3.16 16.89-6.5597 33.8-9.0797 50.78 71.07-2.9 141.23 9.3694 210.87 21.859 21.3 2.94 51.72 1.5609 61.63 24.861-22.05 9.44-44.941 17.249-67.361 25.919-66.96 17.65-137.37 33.991-205.46 36.541 0.24 69.29-0.77 138.72 0.5 207.93 31.53 21.61 62.979 44.311 85.509 75.941-5.51 8.38-17.839 7.2803-26.389 5.4703-20.7-5.66-39.47-16.73-59.78-23.35-0.1 10.52-0.1009 21.069 0.3391 31.619 48.08-0.83 97.521 20.961 123.49 62.581 44.31 70.95 35.4 167.73-10.82 235.61-24.57 37-67.401 63.04-112.59 61.35-4.25 84.88 3.4806 169.73 8.4406 254.42 257.36-122.05 516.48-240.57 775.26-359.66 12.78-5.47 25.07-12.04 36.77-19.55-1.05-25.87-0.7797-53.68-2.3797-78.2-26.96 17.65-44.001 48.591-73.191 63.961-28.19 14.36-60.609 15.939-91.539 18.509-52.24 5.51-104.81-17.06-137.68-57.72-57.56-59.83-80.41-144.25-81.5-225.48-0.11-56.56-0.8606-115.51 19.909-169.12 15.43-39.26 45.7-69.769 73.42-100.59 51.14-54.98 137.22-62.5 205.1-38.73 37.5 14.42 62.1 47.809 89.68 75.239-0.15-356.3-2.6503-712.81-3.4703-1069.2zm-4595.2 3.15c-2.84 525.95-4.9506 1052-5.9906 1578 70.33 36.28 142.22 69.45 214.06 102.65 194.27 88.39 389.65 174.41 585.2 259.9-0.46-337.51-0.4197-675.03-0.03-1012.5-47.96 7.59-103 1.2503-138.71-34.83-64.31-63.62-53.369-181.97 17.561-236.39 33.67-27.08 79.029-33.849 120.97-29.239-0.39-148.39 0.4909-296.81-0.4391-445.18-264.2-60.71-528.4-121.72-792.6-182.32zm2335.5 70.091c-24.07 13.88-56.759 4.26-76.459 25.65-101.54 78.25-196.22 164.88-291.65 250.33-13.99 17.86-26.899 43.62-13.859 65.45 107.8 27.48 216.03 53.409 323.93 80.559 9.36-0.14 18.239-4.8294 27.489-6.4094 218.42-58.61 440.35-102.72 662.05-146.85-53.44-74.12-137.75-115.03-215.37-158.7-8.5-4.32-16.2-10.899-25.97-12.059-131.91-24.42-262.11-59.35-390.16-97.97zm2046 48.208c34.376-0.0661 64.486 27.744 75.452 59.472 17.13 48.18 11.239 101.41-2.0609 149.82-4.24 20.02-21.469 33.68-40.909 38.08-36 11.85-89.21 7.9597-105.93-31.97-18.27-50.81-10.111-107.25 5.1094-157.83 8.07-26.83 27.99-53.31 57.55-56.63 3.631-0.63 7.233-0.93536 10.789-0.94216zm-4050.8 47.983c67.753 0.60544 132.8 37.828 172.37 92.348 37.84 51.19 55.06 115.64 54.68 178.78-1.72 54.51-27.36 107.84-70.18 141.91-71.85 57.44-175.67 70.731-260.6 36.391-42.38-17.34-79.309-49.9-97.659-92.32-28.57-65.89-12.211-140.41 6.7688-206.56 24.04-76.81 90.641-143.42 173.53-149.54 7.0416-0.74248 14.079-1.072 21.088-1.0094zm1979.1 53.369c25.291-0.063 50.602 1.5859 75.712 4.5109 59.65 6.34 119.78 12.249 177.48 29.519 25.31 7.2 49.499 23.8 61.319 47.77 5.68 10.4-2.6191 20.951-8.7891 28.841-17.3 16.64-43.281 13.05-65.191 15.78-82.42 11.14-165.4-6.8494-243.07-33.659-29.07-8.61-54.359-27.131-75.459-48.481-7.4-7.48-14.169-22.35-3.6094-30.1 15.9-12.1 37.37-11.49 56.33-13.53 8.4175-0.4175 16.846-0.6289 25.277-0.65zm-912.34 39.311c-2.22 0.08-6.6597 0.2294-8.8797 0.3094-31.29 3.69-62.67 6.7103-93.93 10.52 119.1 19.15 237.11 46.41 355.19 71.53 4.2-9.54 12.349-16.449 17.889-24.859-92.47-2.88-183.65-26-270.27-57.5zm-127.5 40.9c0.1 479.11-0.2106 958.23 0.1594 1437.3 33.22 6.37 61.651 28.729 79.091 57.319 35.11 59.88 43.61 134.69 27.18 201.67-17.62 43.17-61.06 77.661-106.37 83.761 0.66 24.28-1.7288 49.89 1.1312 73.43 332.09 151.09 662.6 305.75 994.04 458.19-0.89-693.13-2.9691-1386.2-5.1891-2079.3-99.92-25.13-200.5-49.04-300.9-72.42 10.78 98.47 5.3397 197.7 7.1797 296.52 5.77 156.52-8.74 320.63-85.4 460.34-9.71 18.59-20.99 36.24-31.83 54.17-53.4 103.39-127.75 194.09-202.09 282.83 36.65-139.78 55-283.44 75.58-426.14-26.11 42.35-64.43 75.3-103.55 105.25-52.01 37.62-108.32 69.79-168.43 92.58-55.62 20.17-118.16 37.581-176.46 18.381 121.1-90.83 247.09-184.76 328.14-315.71 52.04-85.29 78.64-184.39 85.38-283.62 7.82-125.18-11.14-251.07-46.33-371.1-123.7-24.6-247.5-49.4-371.3-73.5zm1710 69.448c-1.307 0.014-2.725 0.3094-4.2797 0.961-33.4 5.16-66.32 13.14-98.82 22.35-184.62 49.65-371.95 88.43-558.8 128.42-0.19 692.85 0.1306 1385.7-0.1594 2078.6 45.08-17.74 89.24-38.949 133.98-57.989 278.31-122.58 556.93-244.57 835.1-367.43 0.1-353.35-0.05-706.72 0.07-1060.1 1.92-6.35-5.3203-8.3491-8.5703-11.989-28.26-25.1-58.151-48.32-86.211-73.63-52.73-48.32-88.449-112.22-113.46-178.54-31.32-79.76-41.06-165.85-38.87-251.03-6.34-72.52 3.1-155.28-44.45-216.55-4.6491-4.9781-8.4717-13.146-15.53-13.072zm-265.71 409.49c58.795 0.2098 105.2 47.942 141.22 90.5 51.65 76.25 65.49 170.44 71.52 260.47 2.97 34.5 2.5309 69.511-4.4391 103.54-11.11 56.58-23.281 115.12-56.531 163.45-39.6 52.59-101.22 93.549-168.81 93.609-42.11-1.87-79.42-26.49-109.18-54.63-21.49-18.1-32.14-44.68-41.73-70.28-17.8-48.55-41.611-95.541-48.641-147.34-10.68-66.31-19.081-136.05 1.3594-201.38 20.54-75.83 58.401-147.93 114.19-203.77 21.58-21.77 52.821-29.72 82.391-32.65 6.3497-1.0538 12.565-1.5404 18.647-1.5188zm-2215.9 247.5c51.1 0.61 107.36 16.049 139.25 58.909 55.83 67.23 91.62 154.03 88.27 242.28-4.19 46.95-24.871 91.89-56.061 127.03-37.77 39.86-90.33 60.731-141.93 76.061-29.06 9.12-62.45 13.21-89.93-2.7203-90.63-43.75-171.7-129.55-177.5-234.21 0.68-87.25 57.271-161.27 115.34-221.15 29.99-35.26 78.519-44.73 122.56-46.2zm1485.1 452.05c91.22-0.84 177.01 60.65 214.77 142.2 34.66 92.87 47.231 195.75 29.131 293.57-11.75 68.14-57.88 124.26-109.2 167.78-51.48 34.41-118.96 48.64-178.5 28.23-42.26-14.39-78.511-43.37-105.29-78.72-71.18-92.77-85.87-219.33-59.68-330.99 12.65-53.62 35.81-106.35 75.22-145.78 29.45-44.41 79.5-75.759 133.55-76.289zm838.61 425.22c43.103 0.2775 84.127 25.408 103.93 64.214 46.46 61.3 63.371 147.24 32.041 219-14.64 36.22-36.84 71.28-70.33 92.67-27.01 16.59-64.141 20.94-91.641 3.25-20.2-12.78-35.95-32.04-46.78-53.2-38.46-68.18-49.78-151.55-28.67-227.14 11.2-43.33 38.14-94.43 88.03-98.07 4.4821-0.5156 8.9629-0.7522 13.422-0.7235z" fill="#3c8c95"/>
</g>
</svg>
