<?xml version="1.0" encoding="iso-8859-1"?>
<!-- Generator: Adobe Illustrator 15.0.0, SVG Export Plug-In . SVG Version: 6.00 Build 0)  -->
<!DOCTYPE svg PUBLIC "-//W3C//DTD SVG 1.1//EN" "http://www.w3.org/Graphics/SVG/1.1/DTD/svg11.dtd">
<svg version="1.1" id="Layer_1" xmlns="http://www.w3.org/2000/svg" xmlns:xlink="http://www.w3.org/1999/xlink" x="0px" y="0px"
	 width="128px" height="128px" viewBox="0 0 128 128" style="enable-background:new 0 0 128 128;" xml:space="preserve">
<g>
	<circle style="fill:#263740;" cx="64" cy="64" r="64"/>
	<path style="fill:#E6E6E6;" d="M3.902,86.052C12.889,110.533,36.404,128,64,128c0.688,0,1.368-0.03,2.051-0.052
		C57.064,103.467,33.549,86,5.953,86C5.266,86,4.585,86.03,3.902,86.052z"/>
	<g>
		<path style="fill:#CC584C;" d="M66.229,40.395c-1.971-2.472-7.503-1.295-13.833,2.94c-4.399,3.104-11.73,16.229-12.525,19.29
			s4.902,2.307,6.121,1.59c1.929-1.133,7.375-9.52,7.919-10.357c0.545-0.838,4.149-0.883,6.917-1.471
			C61.621,49.326,65.141,42.072,66.229,40.395z"/>
		<path style="fill:#CC584C;" d="M88.034,54.557c3.062,0.794,4.237,6.327,2.94,13.832c-1.048,5.282-10.056,17.318-12.526,19.289
			c-2.474,1.974-4.101-3.539-3.943-4.942c0.251-2.225,5.697-10.609,6.242-11.448c0.545-0.838-0.882-4.149-1.472-6.916
			C81.749,62.397,86.945,56.233,88.034,54.557z"/>
		<path style="fill:#E6E6E6;" d="M107.633,0.51c-2.518-1.634-18.865-0.326-31.395,18.963c-10.348,15.936-16.251,32.37-16.502,34.592
			c2.517,1.636,9.226,5.991,9.226,5.991s6.71,4.356,9.226,5.99c1.93-1.132,15.086-14.05,24.892-29.146
			C115.604,17.609,110.146,2.145,107.633,0.51z"/>
		<circle style="fill:#263740;" cx="91.292" cy="25.67" r="10"/>
		<path style="fill:#C2E2F2;" d="M88.023,30.702c-2.773-1.804-3.565-5.525-1.765-8.3c1.804-2.775,5.524-3.566,8.302-1.766
			c2.772,1.803,3.563,5.524,1.764,8.301C94.521,31.713,90.801,32.504,88.023,30.702z"/>
		<path style="fill:#CC584C;" d="M101.096,10.574c3.08,2,6.449,3.199,9.863,3.658c0.352-7.678-1.936-12.818-3.326-13.725
			c-1.395-0.902-7.021-0.9-13.892,2.542C95.549,5.982,98.016,8.573,101.096,10.574z"/>
		<g>
			<path style="fill:#CC584C;" d="M76.598,72.167c-0.6,0.923-1.845,1.188-2.768,0.589l-18.45-11.98
				c-0.923-0.601-1.188-1.846-0.589-2.769l2.18-3.354c0.6-0.922,1.844-1.188,2.768-0.588l18.449,11.982
				c0.924,0.6,1.188,1.844,0.59,2.769L76.598,72.167z"/>
		</g>
		<path style="fill:#BF5347;" d="M62.59,60.688c-0.6,0.925-1.336,2.097-2.104,3.402l9.079,5.896
			c0.881-1.233,1.651-2.385,2.252-3.309s1.336-2.096,2.104-3.4l-9.077-5.896C63.961,58.613,63.189,59.763,62.59,60.688z"/>
		<path style="fill:#FFD464;" d="M57.057,61.863C50.44,72.051,42.108,92.694,46.508,95.551c4.398,2.857,19.866-13.148,26.484-23.341
			L57.057,61.863z"/>
		<path style="fill:#F2B255;" d="M58.734,62.952c-6.617,10.188-9.165,20.28-5.692,22.535c3.474,2.256,11.655-4.178,18.272-14.365
			L58.734,62.952z"/>
		
			<ellipse transform="matrix(-0.8387 -0.5446 0.5446 -0.8387 88.9017 153.7037)" style="fill:#CC584C;" cx="67.213" cy="63.687" rx="3.5" ry="16.999"/>
	</g>
	<g>
		
			<ellipse transform="matrix(-0.9264 -0.3765 0.3765 -0.9264 7.8562 194.4982)" style="fill:#CCCCCC;" cx="22.933" cy="96.481" rx="6" ry="4.5"/>
		<path style="fill:#B3B3B3;" d="M23.26,100.669c-3.07-1.247-4.801-4.125-3.865-6.428c0.535-1.318,1.84-2.144,3.424-2.39
			c-2.438-0.35-4.674,0.545-5.424,2.39c-0.936,2.303,0.795,5.181,3.865,6.428c1.313,0.533,2.646,0.661,3.829,0.479
			C24.482,101.06,23.869,100.917,23.26,100.669z"/>
	</g>
	<g>
		
			<ellipse transform="matrix(-0.7008 -0.7133 0.7133 -0.7008 -5.6871 199.4058)" style="fill:#CCCCCC;" cx="38.973" cy="100.896" rx="3.936" ry="2.951"/>
		<path style="fill:#B3B3B3;" d="M38.051,103.457c-1.521-1.549-1.813-3.732-0.65-4.875c0.664-0.655,1.664-0.811,2.683-0.547
			c-1.376-0.845-2.955-0.892-3.887,0.023c-1.163,1.145-0.871,3.326,0.651,4.876c0.651,0.663,1.422,1.089,2.182,1.285
			C38.686,104.012,38.354,103.766,38.051,103.457z"/>
	</g>
	<g>
		
			<ellipse transform="matrix(-0.9624 -0.2718 0.2718 -0.9624 42.0374 229.5513)" style="fill:#CCCCCC;" cx="36.917" cy="111.864" rx="5.968" ry="4.476"/>
		<path style="fill:#B3B3B3;" d="M37.711,115.956c-3.169-0.896-5.195-3.552-4.521-5.931c0.382-1.362,1.582-2.318,3.121-2.736
			c-2.447-0.078-4.562,1.05-5.101,2.956c-0.673,2.378,1.354,5.035,4.525,5.93c1.356,0.384,2.688,0.363,3.839,0.054
			C38.967,116.209,38.342,116.135,37.711,115.956z"/>
	</g>
	<path style="fill:#FFD464;" d="M27.953,21c0,4-1,5-5,5c4,0,5,1,5,5c0-4,1-5,5-5C28.953,26,27.953,25,27.953,21z"/>
	<path style="fill:#FFD464;" d="M14.953,50c0,4-1,5-5,5c4,0,5,1,5,5c0-4,1-5,5-5C15.953,55,14.953,54,14.953,50z"/>
	<path style="fill:#FFD464;" d="M28.953,68c0,4-1,5-5,5c4,0,5,1,5,5c0-4,1-5,5-5C29.953,73,28.953,72,28.953,68z"/>
	<path style="fill:#FFD464;" d="M81.953,101c0,4-1,5-5,5c4,0,5,1,5,5c0-4,1-5,5-5C82.953,106,81.953,105,81.953,101z"/>
	<path style="fill:#FFD464;" d="M117.953,78c0,4-1,5-5,5c4,0,5,1,5,5c0-4,1-5,5-5C118.953,83,117.953,82,117.953,78z"/>
	<path style="fill:#FFD464;" d="M114.953,43c0,4-1,5-5,5c4,0,5,1,5,5c0-4,1-5,5-5C115.953,48,114.953,47,114.953,43z"/>
	<path style="fill:#FFD464;" d="M64.953,7c0,4-1,5-5,5c4,0,5,1,5,5c0-4,1-5,5-5C65.953,12,64.953,11,64.953,7z"/>
	<path style="fill:#FFD464;" d="M47.953,28c0,4-1,5-5,5c4,0,5,1,5,5c0-4,1-5,5-5C48.953,33,47.953,32,47.953,28z"/>
</g>
</svg>
